<?xml version="1.0" standalone="no"?>
<!DOCTYPE svg PUBLIC "-//W3C//DTD SVG 20010904//EN"
 "http://www.w3.org/TR/2001/REC-SVG-20010904/DTD/svg10.dtd">
<svg version="1.0" xmlns="http://www.w3.org/2000/svg"
 width="537.000000pt" height="537.000000pt" viewBox="0 0 537.000000 537.000000"
 preserveAspectRatio="xMidYMid meet">

<g transform="translate(0.000000,537.000000) scale(0.100000,-0.100000)"
fill="#000000" stroke="none">
<path d="M885 3241 c-51 -23 -92 -71 -101 -116 -19 -104 39 -167 196 -210 137
-37 180 -75 165 -143 -13 -59 -69 -92 -157 -92 -74 0 -124 25 -141 70 -10 26
-17 30 -48 30 -37 0 -37 -1 -29 -30 26 -89 103 -135 225 -134 62 0 89 5 122
22 114 60 136 203 42 275 -19 14 -65 35 -104 47 -175 54 -205 74 -205 132 0
67 54 108 142 108 66 0 118 -26 137 -68 12 -27 20 -32 48 -32 36 0 38 5 22 47
-14 38 -46 71 -91 94 -50 26 -167 26 -223 0z"/>
<path d="M2370 2940 l0 -320 35 0 35 0 0 320 0 320 -35 0 -35 0 0 -320z"/>
<path d="M2560 3225 l0 -35 100 0 100 0 0 -285 0 -285 35 0 35 0 0 285 0 285
100 0 100 0 0 35 0 35 -235 0 -235 0 0 -35z"/>
<path d="M4130 2940 l0 -320 35 0 35 0 0 165 c0 184 7 213 60 240 39 20 110
19 136 -3 40 -32 44 -55 44 -231 l0 -171 35 0 35 0 0 178 c0 164 -2 181 -22
222 -31 62 -73 82 -157 77 -60 -3 -66 -6 -98 -42 l-33 -38 0 121 0 122 -35 0
-35 0 0 -320z"/>
<path d="M1443 3084 c-75 -37 -115 -105 -121 -204 -5 -80 9 -134 47 -187 39
-53 91 -77 166 -77 70 1 109 18 152 68 41 46 57 97 57 176 -1 113 -40 185
-119 221 -50 23 -139 24 -182 3z m181 -79 c42 -42 60 -101 53 -173 -10 -99
-65 -157 -146 -156 -91 1 -141 67 -141 185 0 73 17 116 59 152 27 22 42 27 86
27 49 0 58 -4 89 -35z"/>
<path d="M1860 2923 c0 -154 3 -184 20 -220 46 -103 190 -114 262 -21 l18 23
0 -42 c0 -42 1 -43 35 -43 l35 0 0 240 0 240 -35 0 -35 0 0 -169 c0 -167 0
-170 -25 -200 -51 -60 -134 -64 -180 -9 -25 29 -25 32 -25 204 l0 174 -35 0
-35 0 0 -177z"/>
<path d="M3102 3088 c-7 -7 -12 -21 -12 -33 0 -42 14 -45 235 -45 221 0 235 3
235 45 0 42 -14 45 -235 45 -151 0 -214 -3 -223 -12z"/>
<path d="M3745 3086 c-39 -17 -79 -58 -102 -104 -13 -28 -18 -60 -18 -128 0
-83 2 -94 30 -140 50 -80 143 -118 231 -94 53 15 108 64 123 108 10 32 10 32
-22 32 -25 0 -36 -7 -49 -30 -17 -30 -70 -60 -105 -60 -9 0 -37 10 -61 21 -33
16 -49 32 -63 63 -25 54 -25 158 -1 206 46 92 179 109 226 29 14 -23 24 -29
52 -29 l34 0 -15 36 c-8 20 -15 38 -15 40 0 3 -21 18 -47 34 -39 25 -57 30
-107 30 -34 -1 -74 -7 -91 -14z"/>
<path d="M2982 2898 c-7 -7 -12 -21 -12 -33 0 -42 14 -45 235 -45 221 0 235 3
235 45 0 42 -14 45 -235 45 -151 0 -214 -3 -223 -12z"/>
<path d="M3102 2718 c-7 -7 -12 -21 -12 -33 0 -42 14 -45 235 -45 221 0 235 3
235 45 0 42 -14 45 -235 45 -151 0 -214 -3 -223 -12z"/>
<path d="M760 2495 c-10 -12 -10 -21 -2 -40 l12 -25 1916 2 c1813 3 1917 4
1928 21 8 12 8 22 0 35 -11 16 -115 17 -1926 20 -1710 2 -1917 0 -1928 -13z"/>
<path d="M3197 2306 c-47 -17 -115 -63 -128 -87 -22 -43 -19 -45 106 -85 100
-32 85 -71 -47 -129 -39 -17 -73 -36 -76 -43 -7 -23 68 -3 138 37 36 20 84 45
108 54 l42 17 -5 -23 c-8 -32 25 -62 60 -53 35 9 75 53 75 82 0 13 -9 33 -20
44 -19 19 -22 19 -58 5 -20 -9 -53 -27 -73 -40 -44 -31 -51 -31 -40 -2 17 45
-16 67 -124 81 -47 6 -75 15 -75 25 0 11 41 46 75 64 99 52 227 49 209 -5 -4
-14 -2 -18 5 -14 17 11 13 51 -7 69 -23 21 -110 22 -165 3z m247 -222 c-3 -32
-41 -74 -66 -74 -37 0 -9 72 36 90 32 13 33 12 30 -16z m-299 -93 c-6 -5 -23
-12 -40 -15 l-30 -6 30 14 c35 18 54 20 40 7z"/>
<path d="M3653 2288 c-65 -73 -123 -184 -123 -237 0 -71 54 -72 113 -1 30 35
54 42 37 10 -13 -24 -6 -56 14 -63 7 -3 36 18 66 47 l53 51 -6 -33 c-4 -19 -2
-42 4 -53 10 -19 12 -18 52 13 23 17 44 33 46 35 2 2 2 6 -2 9 -3 3 -18 -5
-33 -19 -36 -34 -48 -25 -29 20 14 33 14 38 0 52 -13 14 -21 9 -73 -42 -32
-31 -61 -57 -65 -57 -9 0 2 42 13 50 14 11 18 39 6 49 -14 12 -43 -7 -109 -72
-47 -46 -67 -48 -67 -7 0 18 5 30 13 30 14 0 106 136 126 187 21 51 -1 70 -36
31z m27 -25 c0 -21 -98 -158 -107 -149 -6 6 12 40 55 104 32 47 52 64 52 45z"/>
<path d="M4176 2208 c-18 -26 -13 -36 9 -18 13 11 18 10 28 -5 13 -16 15 -16
43 8 16 14 26 29 22 33 -5 4 -16 0 -27 -10 -16 -15 -19 -15 -24 -1 -9 22 -33
19 -51 -7z"/>
<path d="M4492 2131 c-14 -30 -136 -121 -164 -121 -31 0 -19 24 32 60 51 36
61 54 35 64 -32 12 -77 -20 -104 -72 -10 -19 -9 -28 4 -48 8 -13 22 -24 31
-24 29 0 93 40 138 87 45 45 46 46 46 20 0 -47 -20 -77 -52 -77 -18 0 -28 -5
-28 -15 0 -22 24 -29 52 -15 40 21 128 90 128 101 0 6 -14 -1 -31 -15 -34 -29
-51 -33 -43 -11 9 22 -5 82 -19 88 -7 3 -18 -7 -25 -22z m-125 -36 c-34 -30
-52 -33 -37 -6 10 20 25 29 50 30 10 0 5 -9 -13 -24z"/>
<path d="M4002 2131 c-27 -7 -79 -55 -87 -81 -3 -11 -2 -27 3 -36 12 -22 -12
-70 -41 -79 l-22 -8 23 -4 c25 -5 66 23 56 38 -2 5 15 18 38 30 24 12 65 37
92 56 l49 35 -7 -27 c-8 -29 15 -65 41 -65 24 0 72 29 84 51 16 30 3 86 -21
92 -20 5 -113 -36 -139 -60 -19 -19 -107 -63 -126 -63 -45 0 24 93 71 95 29 2
44 19 22 27 -7 3 -23 2 -36 -1z m208 -49 c0 -35 -30 -72 -59 -72 -52 0 -4 84
57 99 1 1 2 -12 2 -27z"/>
</g>
</svg>
